HIERARCHY
ROOT Hips
{
	OFFSET 0.000000 0.000000 0.000000 
	CHANNELS 6 Xposition Yposition Zposition Yrotation Zrotation Xrotation 
	JOINT Lumbar
	{
		OFFSET 0.000000 0.000000 0.000000 
		CHANNELS 3 Zrotation Xrotation Yrotation
		JOINT Neck
		{
			OFFSET 0.000000 0.445665 0.000000 
			CHANNELS 3 Zrotation Xrotation Yrotation
			End Site
			{
				OFFSET 0.000000 0.227535 0.000000 
			}
		}
		JOINT RightShoulder
		{
			OFFSET 0.019635 0.377685 0.194865 
			CHANNELS 3 Zrotation Xrotation Yrotation
			JOINT RightElbow
			{
				OFFSET 0.000000 -0.243375 0.000000 
				CHANNELS 2 Zrotation Yrotation
				JOINT RightWrist
				{
					OFFSET 0.000000 -0.264825 0.000000 
					CHANNELS 2 Zrotation Xrotation
					End Site
					{
						OFFSET 0.006600 -0.176220 0.000990 
					}
				}
			}
		}
		JOINT LeftShoulder
		{
			OFFSET 0.019635 0.377685 -0.194865 
			CHANNELS 3 Zrotation Xrotation Yrotation
			JOINT LeftElbow
			{
				OFFSET 0.000000 -0.243375 0.000000 
				CHANNELS 2 Zrotation Yrotation
				JOINT LeftWrist
				{
					OFFSET 0.000000 -0.264825 0.000000 
					CHANNELS 2 Zrotation Xrotation
					End Site
					{
						OFFSET 0.006600 -0.176220 -0.000990 
					}
				}
			}
		}
	}
	JOINT RightHip
	{
		OFFSET 0.052140 -0.069960 0.075570 
		CHANNELS 3 Zrotation Xrotation Yrotation
		JOINT RightKnee
		{
			OFFSET 0.000000 -0.402270 0.000000 
			CHANNELS 1 Zrotation
			JOINT RightAnkle
			{
				OFFSET 0.000000 -0.404085 0.000000 
				CHANNELS 3 Zrotation Xrotation Yrotation
				End Site
				{
					OFFSET 0.204105 -0.089430 0.008415 
				}
			}
		}
	}
	JOINT LeftHip
	{
		OFFSET 0.052140 -0.069960 -0.075570 
		CHANNELS 3 Zrotation Xrotation Yrotation
		JOINT LeftKnee
		{
			OFFSET 0.000000 -0.402270 0.000000 
			CHANNELS 1 Zrotation
			JOINT LeftAnkle
			{
				OFFSET 0.000000 -0.404085 0.000000 
				CHANNELS 3 Zrotation Xrotation Yrotation
				End Site
				{
					OFFSET 0.204105 -0.089430 -0.008415 
				}
			}
		}
	}
}
MOTION
Frames: 22
Frame Time: 0.02
-1.3872 -0.00212 -0.19294 -188.73024 -36.31307 -1.73979 45.77217 -1.95685 -8.75982 -15.31407 9.76183 -2.11994 14.30354 -5.85119 8.55958 112.17497 77.44512 -7.24494 0.09864 -6.75505 10.72824 -23.88846 112.50433 -122.3785 13.51081 -6.79094 23.54293 -8.28448 -6.49491 -5.37925 -7.56942 -3.56028 -4.02473 19.40056 2.92314 -11.85786 0.52024 -2.61075 34.83264 19.34371
-1.38703 -0.00199 -0.19274 -188.77408 -36.34975 -1.77545 45.76949 -1.92979 -8.82571 -15.44613 9.44522 -2.11994 14.17141 -5.88841 9.42279 112.34917 77.86306 -6.64868 0.67442 -6.47977 10.55216 -23.82349 112.32314 -122.01632 14.1378 -6.51442 23.10449 -8.21432 -3.83161 -4.36946 -7.16382 -8.34005 -6.50537 19.47749 2.93594 -11.889 0.52028 -2.65977 34.84638 19.3473
-1.38689 -0.00183 -0.19271 -188.79075 -36.38931 -1.81438 45.76565 -1.89689 -8.91072 -15.61016 9.06763 -2.11994 13.98949 -5.87061 10.4503 112.56562 77.54738 -6.02718 1.71842 -6.14178 10.40391 -23.77873 112.10902 -119.70207 14.48307 -5.83979 22.5711 -8.11532 -0.45188 -3.17311 -6.10641 -14.64532 -9.73033 19.56543 2.96905 -11.94817 0.52023 -2.71589 34.84751 19.34735
-1.38672 -0.00169 -0.1926 -188.82143 -36.42733 -1.85221 45.75704 -1.86655 -8.98315 -15.75378 8.72519 -2.11994 13.82935 -5.89181 11.42683 112.75451 77.72614 -5.37945 2.51564 -5.8315 10.24705 -23.73038 111.9157 -118.28106 14.94419 -5.35227 22.098 -8.03093 2.50185 -2.09418 -5.38876 -20.06657 -12.51993 19.64872 2.99326 -11.98491 0.52019 -2.75358 34.83535 19.34382
-1.38662 -0.00154 -0.19247 -188.84376 -36.46614 -1.88813 45.77124 -1.83684 -9.07236 -15.92345 8.34999 -2.11994 13.67391 -5.86145 12.3118 112.97889 77.30132 -4.87184 3.43622 -5.52388 10.07098 -23.6577 111.69665 -116.85895 15.46462 -4.84242 21.54655 -7.93914 5.88462 -0.86736 -4.5088 -26.30031 -15.72485 19.73035 3.01649 -12.05996 0.52026 -2.84868 34.89372 19.35955
-1.38637 -0.00139 -0.19244 -188.87746 -36.50475 -1.92888 45.73792 -1.80444 -9.1307 -16.04517 8.02953 -2.11994 13.49642 -5.92119 13.41968 113.13903 77.91211 -4.0813 4.22073 -5.19691 9.94104 -23.64022 111.52393 -114.99031 15.79633 -4.28745 21.1392 -7.85637 8.53261 0.09113 -3.79896 -31.18782 -18.23262 19.81887 3.04644 -12.06457 0.52011 -2.83162 34.81019 19.33651
-1.38571 -0.00124 -0.1926 -188.95018 -36.53336 -1.98253 45.5681 -1.76498 -9.10335 -16.0368 7.86924 -2.11994 13.27094 -6.25961 15.14549 113.11474 81.78119 -2.4227 4.48799 -4.82168 9.94893 -23.77728 111.48553 -112.05059 15.61213 -3.6488 21.13864 -7.80506 9.09585 0.27193 -3.78069 -32.15763 -18.72033 19.91423 3.08971 -11.84651 0.51924 -2.46351 34.28416 19.19255
-1.38489 -0.00109 -0.19284 -189.03524 -36.56311 -2.04086 45.35134 -1.72318 -9.04365 -15.97732 7.76722 -2.11994 13.02526 -6.6867 17.08032 113.02378 86.66625 -0.49979 4.60747 -4.43097 10.00032 -23.96823 111.49529 -108.76952 15.25433 -2.98608 21.28948 -7.7641 8.87684 0.17348 -3.94363 -31.69457 -18.46754 20.01769 3.13899 -11.56037 0.51818 -1.98957 33.6257 19.01241
-1.38413 -0.00095 -0.19305 -189.11428 -36.59814 -2.09694 45.15966 -1.6831 -8.99573 -15.93429 7.64267 -2.11994 12.78749 -7.06156 18.89223 112.9611 90.93798 1.2406 4.8178 -4.05406 10.02002 -24.12988 111.48431 -105.85798 15.02019 -2.37229 21.38143 -7.71883 8.93401 0.19544 -3.97865 -31.76807 -18.49357 20.12376 3.18567 -11.31984 0.5173 -1.59118 33.06483 18.85894
-1.38342 -0.00079 -0.19326 -189.19434 -36.60927 -2.15389 44.95238 -1.64001 -8.96006 -15.92018 7.49987 -2.11994 12.55106 -7.48492 20.83221 112.90819 95.83638 3.24851 4.95357 -3.6466 10.08787 -24.31188 111.46754 -102.0185 14.60142 -1.59129 21.42915 -7.67074 9.33673 0.25063 -4.17779 -32.35514 -18.77804 20.20422 3.23265 -11.01955 0.51607 -1.07931 32.34877 18.66305
-1.38256 -0.00066 -0.19349 -189.27523 -36.6698 -2.20983 44.76614 -1.60275 -8.89191 -15.83431 7.40899 -2.11994 12.31059 -7.82912 22.54745 112.81882 99.66612 4.75787 5.19167 -3.29967 10.06928 -24.46485 111.47442 -100.00028 14.51213 -1.14933 21.60488 -7.63153 8.84249 0.16895 -4.09386 -31.54174 -18.35263 20.33911 3.27999 -10.82568 0.51549 -0.7758 31.9206 18.54585
-1.38133 -0.00056 -0.1938 -189.35815 -36.87176 -2.26403 44.65227 -1.582 -8.7336 -15.55349 7.45409 -2.11994 12.03881 -7.93247 23.63621 112.64261 100.42292 4.85891 5.85223 -3.12603 9.76787 -24.51728 111.5376 -103.5905 15.5297 -1.72704 22.10972 -7.61318 5.90546 -0.23453 -3.12538 -26.94868 -16.02339 20.62833 3.32815 -10.95539 0.51686 -1.09775 32.35522 18.66449
-1.37996 -0.00048 -0.19414 -189.44093 -37.12241 -2.3166 44.56075 -1.56727 -8.54524 -15.20373 7.54854 -2.11994 11.76833 -7.95382 24.48211 112.43238 100.0534 4.44429 6.60199 -3.01369 9.38376 -24.53976 111.62263 -108.9498 16.8601 -2.63535 22.73661 -7.6038 2.11838 -0.76554 -1.88124 -21.03507 -13.02419 20.97091 3.37611 -11.19209 0.51886 -1.62857 33.07761 18.86171
-1.37867 -0.00039 -0.19446 -189.52232 -37.34728 -2.36846 44.45707 -1.54994 -8.37601 -14.89153 7.61608 -2.11994 11.51425 -8.01287 25.40891 112.23899 100.11451 4.24198 7.237 -2.87205 9.05981 -24.58076 111.69592 -113.17438 17.94382 -3.34206 23.29936 -7.59114 -1.17971 -1.23021 -0.80324 -15.89345 -10.41064 21.28499 3.42314 -11.37097 0.52056 -2.0477 33.64513 19.01674
-1.37733 -0.00032 -0.19479 -189.61096 -37.58755 -2.42667 44.3599 -1.53197 -8.18236 -14.55149 7.70418 -2.11994 11.18872 -8.07166 26.46827 112.03698 100.53572 4.13568 8.16897 -2.73595 8.64353 -24.60348 111.77827 -118.75204 19.45129 -4.2601 23.90257 -7.5753 -4.93749 -1.73689 0.44681 -9.98565 -7.43171 21.61713 3.47461 -11.58583 0.52243 -2.53352 34.30974 19.19822
-1.37605 -0.00022 -0.19511 -189.68341 -37.80735 -2.47117 44.25547 -1.51674 -8.03308 -14.25346 7.7609 -2.11994 11.0113 -8.11224 27.19017 111.84631 99.94867 3.71136 8.51991 -2.60304 8.39754 -24.65573 111.84659 -121.97405 20.16685 -4.82236 24.45026 -7.56826 -7.9304 -2.18651 1.39944 -5.36805 -5.06088 21.92443 3.51682 -11.75266 0.52392 -2.93193 34.8422 19.34329
-1.37502 0 -0.1954 -189.71872 -37.95761 -2.47857 44.12144 -1.50811 -8.01175 -14.09001 7.71501 -2.11994 11.25601 -8.10704 27.04841 111.68999 96.66157 2.46971 7.11819 -2.46384 8.65736 -24.80314 111.86846 -117.9371 18.49942 -4.27426 24.80125 -7.5817 -8.59214 -2.41798 1.52387 -4.73314 -4.56542 22.14815 3.53273 -11.74954 0.52487 -3.03214 34.93131 19.36847
-1.37406 0.00025 -0.19568 -189.73623 -38.08545 -2.47216 43.97963 -1.50185 -8.03655 -13.97071 7.63656 -2.11994 11.64866 -8.08937 26.57433 111.54719 92.43326 0.93936 5.15141 -2.32536 9.08836 -24.98004 111.87579 -111.53007 16.04792 -3.36547 25.09519 -7.6039 -8.45245 -2.59453 1.33094 -5.43232 -4.70301 22.34532 3.53953 -11.6927 0.52471 -3.03749 34.87371 19.35159
-1.37306 0.00048 -0.19594 -189.75699 -38.22466 -2.47178 43.84516 -1.49431 -8.04173 -13.83083 7.57495 -2.11994 11.96319 -8.08645 26.24357 111.40253 88.75145 -0.42069 3.52888 -2.18736 9.43065 -25.13882 111.8909 -106.42113 14.03422 -2.65304 25.42178 -7.62311 -8.68383 -2.81058 1.24199 -5.4628 -4.53281 22.5559 3.55086 -11.67331 0.52534 -3.09219 34.89677 19.35788
-1.37208 0.00074 -0.19629 -189.79843 -38.36193 -2.4723 43.69817 -1.48823 -8.04045 -13.69241 7.50537 -2.11994 12.31826 -8.04006 25.93046 111.24019 84.51364 -1.97463 1.54648 -2.05013 9.81598 -25.31576 111.90128 -100.4418 11.68552 -1.81589 25.7192 -7.63854 -8.91877 -2.9584 1.3245 -5.70514 -4.42221 22.76275 3.5602 -11.61939 0.52713 -3.13304 34.89516 19.36167
-1.37108 0.00093 -0.19646 -189.79224 -38.49562 -2.46781 43.5716 -1.47909 -8.06362 -13.56019 7.44538 -2.11994 12.63087 -8.08525 25.51301 111.11627 81.24492 -3.1728 0.17039 -1.90807 10.15361 -25.46319 111.91848 -95.68812 9.8466 -1.14767 26.06868 -7.66369 -8.94187 -3.24796 0.98093 -5.84622 -4.34838 22.97025 3.57197 -11.60213 0.52327 -3.17086 34.87573 19.34477
-1.37016 0.00095 -0.19612 -189.66162 -38.64017 -2.4518 43.53396 -1.46503 -8.14579 -13.45224 7.40785 -2.11994 12.7359 -8.36079 24.8164 111.10889 80.70419 -3.44049 0.67503 -1.77357 10.31645 -25.51496 111.95131 -94.90089 9.58431 -1.04041 26.51997 -7.71426 -8.59692 -3.8142 -0.549 -5.34018 -4.21092 23.18873 3.589 -11.88781 0.52857 -3.28449 35.11335 19.41292
